<svg xmlns="http://www.w3.org/2000/svg" viewBox="22 6 84 116" width="84" height="116">
  <!-- Generic document icon: white page with a folded top-right corner.
       viewBox is cropped to the page itself so the glyph fills the
       home-page thumbnail box instead of floating inside padding. -->
  <path d="M22 10a4 4 0 0 1 4-4h50l30 30v82a4 4 0 0 1-4 4H26a4 4 0 0 1-4-4V10z" fill="#F2F2F2"/>
  <path d="M76 6l30 30H80a4 4 0 0 1-4-4V6z" fill="#FFFFFF"/>
  <g fill="#B4B4B4">
    <rect x="40" y="42" width="18" height="18" rx="4"/>
    <rect x="66" y="45" width="22" height="5" rx="2.5"/>
    <rect x="66" y="55" width="22" height="5" rx="2.5"/>
    <rect x="40" y="70" width="48" height="6" rx="3"/>
    <rect x="40" y="82" width="48" height="6" rx="3"/>
  </g>
</svg>
